<mxfile host="app.diagrams.net" modified="2023-03-16T22:11:39.344Z" agent="5.0 (Windows NT 10.0; Win64; x64) AppleWebKit/537.36 (KHTML, like Gecko) Chrome/111.0.0.0 Safari/537.36" etag="3oHCsDstVh32Bb7G1kiY" version="21.0.6" type="github">
  <diagram name="PÃ¡gina-1" id="clSKfbIbrm-G46F0gqga">
    <mxGraphModel dx="3000" dy="1774" grid="1" gridSize="10" guides="1" tooltips="1" connect="1" arrows="1" fold="1" page="1" pageScale="1" pageWidth="1169" pageHeight="827" background="none" math="0" shadow="1">
      <root>
        <mxCell id="0" />
        <mxCell id="1" parent="0" />
        <mxCell id="SU3SuYScUBmW4pT_DL9_-8" value="" style="verticalLabelPosition=bottom;shadow=0;dashed=0;align=center;html=1;verticalAlign=top;strokeWidth=1;shape=mxgraph.mockup.navigation.scrollBar;strokeColor=#999999;barPos=71.273;fillColor2=#99ddff;strokeColor2=none;direction=north;rounded=1;" vertex="1" parent="1">
          <mxGeometry x="2310" y="10" width="10" height="1630" as="geometry" />
        </mxCell>
        <mxCell id="SU3SuYScUBmW4pT_DL9_-9" value="&lt;font style=&quot;font-size: 45px;&quot;&gt;FOLLOWING&lt;/font&gt;" style="text;strokeColor=none;align=center;fillColor=none;html=1;verticalAlign=middle;whiteSpace=wrap;rounded=1;fontSize=45;" vertex="1" parent="1">
          <mxGeometry x="1420" y="260" width="190" height="40" as="geometry" />
        </mxCell>
        <mxCell id="SU3SuYScUBmW4pT_DL9_-11" value="&lt;font style=&quot;font-size: 45px;&quot;&gt;FOLLOWERS&lt;/font&gt;" style="text;strokeColor=none;align=center;fillColor=none;html=1;verticalAlign=middle;whiteSpace=wrap;rounded=1;fontSize=45;" vertex="1" parent="1">
          <mxGeometry x="710" y="260" width="190" height="40" as="geometry" />
        </mxCell>
        <mxCell id="SU3SuYScUBmW4pT_DL9_-17" value="" style="endArrow=none;html=1;rounded=0;" edge="1" parent="1">
          <mxGeometry width="50" height="50" relative="1" as="geometry">
            <mxPoint x="560" y="1650" as="sourcePoint" />
            <mxPoint x="560" as="targetPoint" />
          </mxGeometry>
        </mxCell>
        <mxCell id="SU3SuYScUBmW4pT_DL9_-18" value="" style="endArrow=none;html=1;rounded=0;" edge="1" parent="1">
          <mxGeometry width="50" height="50" relative="1" as="geometry">
            <mxPoint x="1754" y="1654" as="sourcePoint" />
            <mxPoint x="1754" y="4" as="targetPoint" />
          </mxGeometry>
        </mxCell>
        <mxCell id="SU3SuYScUBmW4pT_DL9_-19" value="" style="endArrow=none;html=1;rounded=0;" edge="1" parent="1">
          <mxGeometry width="50" height="50" relative="1" as="geometry">
            <mxPoint x="570" y="370" as="sourcePoint" />
            <mxPoint x="1750" y="370" as="targetPoint" />
          </mxGeometry>
        </mxCell>
        <mxCell id="SU3SuYScUBmW4pT_DL9_-20" value="" style="ellipse;whiteSpace=wrap;html=1;aspect=fixed;shape=mxgraph.ios7.icons.user;perimeter=rectanglePerimeter;verticalAlign=top;strokeColor=#0080F0;labelBackgroundColor=#ffffff;strokeWidth=2;shadow=0;dashed=0;" vertex="1" parent="1">
          <mxGeometry x="650" y="490" width="140" height="140" as="geometry" />
        </mxCell>
        <mxCell id="SU3SuYScUBmW4pT_DL9_-21" value="" style="ellipse;whiteSpace=wrap;html=1;aspect=fixed;shape=mxgraph.ios7.icons.user;perimeter=rectanglePerimeter;verticalAlign=top;strokeColor=#0080F0;labelBackgroundColor=#ffffff;strokeWidth=2;shadow=0;dashed=0;" vertex="1" parent="1">
          <mxGeometry x="650" y="730" width="140" height="140" as="geometry" />
        </mxCell>
        <mxCell id="SU3SuYScUBmW4pT_DL9_-22" value="" style="ellipse;whiteSpace=wrap;html=1;aspect=fixed;shape=mxgraph.ios7.icons.user;perimeter=rectanglePerimeter;verticalAlign=top;strokeColor=#0080F0;labelBackgroundColor=#ffffff;strokeWidth=2;shadow=0;dashed=0;" vertex="1" parent="1">
          <mxGeometry x="650" y="970" width="140" height="140" as="geometry" />
        </mxCell>
        <mxCell id="SU3SuYScUBmW4pT_DL9_-23" value="" style="ellipse;whiteSpace=wrap;html=1;aspect=fixed;shape=mxgraph.ios7.icons.user;perimeter=rectanglePerimeter;verticalAlign=top;strokeColor=#0080F0;labelBackgroundColor=#ffffff;strokeWidth=2;shadow=0;dashed=0;" vertex="1" parent="1">
          <mxGeometry x="650" y="1210" width="140" height="140" as="geometry" />
        </mxCell>
        <mxCell id="SU3SuYScUBmW4pT_DL9_-24" value="" style="ellipse;whiteSpace=wrap;html=1;aspect=fixed;shape=mxgraph.ios7.icons.user;perimeter=rectanglePerimeter;verticalAlign=top;strokeColor=#0080F0;labelBackgroundColor=#ffffff;strokeWidth=2;shadow=0;dashed=0;" vertex="1" parent="1">
          <mxGeometry x="650" y="1450" width="140" height="140" as="geometry" />
        </mxCell>
        <mxCell id="SU3SuYScUBmW4pT_DL9_-25" value="@username" style="text;html=1;strokeColor=none;fillColor=none;align=center;verticalAlign=middle;whiteSpace=wrap;rounded=0;fontSize=42;" vertex="1" parent="1">
          <mxGeometry x="830" y="590" width="220" height="30" as="geometry" />
        </mxCell>
        <mxCell id="SU3SuYScUBmW4pT_DL9_-26" value="username" style="text;html=1;strokeColor=none;fillColor=none;align=center;verticalAlign=middle;whiteSpace=wrap;rounded=0;fontSize=42;" vertex="1" parent="1">
          <mxGeometry x="820" y="520" width="220" height="30" as="geometry" />
        </mxCell>
        <mxCell id="SU3SuYScUBmW4pT_DL9_-29" value="@username" style="text;html=1;strokeColor=none;fillColor=none;align=center;verticalAlign=middle;whiteSpace=wrap;rounded=0;fontSize=42;" vertex="1" parent="1">
          <mxGeometry x="830" y="820" width="220" height="30" as="geometry" />
        </mxCell>
        <mxCell id="SU3SuYScUBmW4pT_DL9_-30" value="username" style="text;html=1;strokeColor=none;fillColor=none;align=center;verticalAlign=middle;whiteSpace=wrap;rounded=0;fontSize=42;" vertex="1" parent="1">
          <mxGeometry x="820" y="750" width="220" height="30" as="geometry" />
        </mxCell>
        <mxCell id="SU3SuYScUBmW4pT_DL9_-31" value="@username" style="text;html=1;strokeColor=none;fillColor=none;align=center;verticalAlign=middle;whiteSpace=wrap;rounded=0;fontSize=42;" vertex="1" parent="1">
          <mxGeometry x="825" y="1060" width="220" height="30" as="geometry" />
        </mxCell>
        <mxCell id="SU3SuYScUBmW4pT_DL9_-32" value="username" style="text;html=1;strokeColor=none;fillColor=none;align=center;verticalAlign=middle;whiteSpace=wrap;rounded=0;fontSize=42;" vertex="1" parent="1">
          <mxGeometry x="815" y="990" width="220" height="30" as="geometry" />
        </mxCell>
        <mxCell id="SU3SuYScUBmW4pT_DL9_-33" value="@username" style="text;html=1;strokeColor=none;fillColor=none;align=center;verticalAlign=middle;whiteSpace=wrap;rounded=0;fontSize=42;" vertex="1" parent="1">
          <mxGeometry x="830" y="1310" width="220" height="30" as="geometry" />
        </mxCell>
        <mxCell id="SU3SuYScUBmW4pT_DL9_-34" value="username" style="text;html=1;strokeColor=none;fillColor=none;align=center;verticalAlign=middle;whiteSpace=wrap;rounded=0;fontSize=42;" vertex="1" parent="1">
          <mxGeometry x="820" y="1240" width="220" height="30" as="geometry" />
        </mxCell>
        <mxCell id="SU3SuYScUBmW4pT_DL9_-35" value="@username" style="text;html=1;strokeColor=none;fillColor=none;align=center;verticalAlign=middle;whiteSpace=wrap;rounded=0;fontSize=42;" vertex="1" parent="1">
          <mxGeometry x="840" y="1550" width="220" height="30" as="geometry" />
        </mxCell>
        <mxCell id="SU3SuYScUBmW4pT_DL9_-36" value="username" style="text;html=1;strokeColor=none;fillColor=none;align=center;verticalAlign=middle;whiteSpace=wrap;rounded=0;fontSize=42;" vertex="1" parent="1">
          <mxGeometry x="830" y="1480" width="220" height="30" as="geometry" />
        </mxCell>
        <mxCell id="SU3SuYScUBmW4pT_DL9_-38" value="Search" style="strokeWidth=1;shadow=0;dashed=0;align=center;html=1;shape=mxgraph.mockup.forms.searchBox;strokeColor=#999999;mainText=;strokeColor2=#008cff;fontColor=#666666;fontSize=35;align=left;spacingLeft=3;whiteSpace=wrap;" vertex="1" parent="1">
          <mxGeometry x="1840" y="159" width="420" height="80" as="geometry" />
        </mxCell>
        <mxCell id="SU3SuYScUBmW4pT_DL9_-39" value="" style="rounded=1;whiteSpace=wrap;html=1;absoluteArcSize=1;arcSize=14;strokeWidth=2;" vertex="1" parent="1">
          <mxGeometry x="1770" y="1210" width="530" height="280" as="geometry" />
        </mxCell>
        <mxCell id="SU3SuYScUBmW4pT_DL9_-40" value="" style="rounded=1;whiteSpace=wrap;html=1;absoluteArcSize=1;arcSize=14;strokeWidth=2;" vertex="1" parent="1">
          <mxGeometry x="1770" y="1390" width="530" height="100" as="geometry" />
        </mxCell>
        <mxCell id="SU3SuYScUBmW4pT_DL9_-41" value="" style="shape=image;html=1;verticalAlign=top;verticalLabelPosition=bottom;labelBackgroundColor=#ffffff;imageAspect=0;aspect=fixed;image=https://cdn2.iconfinder.com/data/icons/essential-web-4/50/clip-fasten-file-attach-join-128.png" vertex="1" parent="1">
          <mxGeometry x="1790" y="1407.5" width="65" height="65" as="geometry" />
        </mxCell>
        <mxCell id="SU3SuYScUBmW4pT_DL9_-43" value="" style="shape=image;html=1;verticalAlign=top;verticalLabelPosition=bottom;labelBackgroundColor=#ffffff;imageAspect=0;aspect=fixed;image=https://cdn2.iconfinder.com/data/icons/boxicons-regular-vol-3/24/bx-poll-128.png" vertex="1" parent="1">
          <mxGeometry x="1867.5" y="1403.75" width="72.5" height="72.5" as="geometry" />
        </mxCell>
        <mxCell id="SU3SuYScUBmW4pT_DL9_-44" value="" style="shadow=0;dashed=0;html=1;strokeColor=none;fillColor=#4495D1;labelPosition=center;verticalLabelPosition=bottom;verticalAlign=top;align=center;outlineConnect=0;shape=mxgraph.veeam.globe;" vertex="1" parent="1">
          <mxGeometry x="1940" y="1410" width="70" height="64.9" as="geometry" />
        </mxCell>
        <mxCell id="SU3SuYScUBmW4pT_DL9_-45" value="CW" style="text;strokeColor=none;align=center;fillColor=none;html=1;verticalAlign=middle;whiteSpace=wrap;rounded=0;fontSize=30;" vertex="1" parent="1">
          <mxGeometry x="2030" y="1425" width="60" height="30" as="geometry" />
        </mxCell>
        <mxCell id="SU3SuYScUBmW4pT_DL9_-46" value="ES" style="text;strokeColor=none;align=center;fillColor=none;html=1;verticalAlign=middle;whiteSpace=wrap;rounded=0;fontSize=30;" vertex="1" parent="1">
          <mxGeometry x="2100" y="1425.0000000000002" width="60" height="30" as="geometry" />
        </mxCell>
        <mxCell id="SU3SuYScUBmW4pT_DL9_-47" value="500" style="text;strokeColor=none;align=center;fillColor=none;html=1;verticalAlign=middle;whiteSpace=wrap;rounded=0;fontSize=30;" vertex="1" parent="1">
          <mxGeometry x="2210" y="1427.45" width="60" height="30" as="geometry" />
        </mxCell>
        <mxCell id="SU3SuYScUBmW4pT_DL9_-48" value="What are yor thoughts?" style="text;strokeColor=none;align=center;fillColor=none;html=1;verticalAlign=middle;whiteSpace=wrap;rounded=0;fontSize=35;fontColor=#696969;" vertex="1" parent="1">
          <mxGeometry x="1790" y="1230" width="420" height="40" as="geometry" />
        </mxCell>
        <mxCell id="SU3SuYScUBmW4pT_DL9_-49" value="" style="shape=image;html=1;verticalAlign=top;verticalLabelPosition=bottom;labelBackgroundColor=#ffffff;imageAspect=0;aspect=fixed;image=https://cdn2.iconfinder.com/data/icons/emoji-line/32/emoji_14-128.png" vertex="1" parent="1">
          <mxGeometry x="2230" y="1220" width="60" height="60" as="geometry" />
        </mxCell>
        <mxCell id="SU3SuYScUBmW4pT_DL9_-51" value="@username" style="text;html=1;strokeColor=none;fillColor=none;align=center;verticalAlign=middle;whiteSpace=wrap;rounded=0;fontSize=39;" vertex="1" parent="1">
          <mxGeometry x="750" y="120" width="220" height="30" as="geometry" />
        </mxCell>
        <mxCell id="SU3SuYScUBmW4pT_DL9_-52" value="username" style="text;html=1;strokeColor=none;fillColor=none;align=center;verticalAlign=middle;whiteSpace=wrap;rounded=0;fontSize=50;" vertex="1" parent="1">
          <mxGeometry x="760" y="60" width="220" height="30" as="geometry" />
        </mxCell>
        <mxCell id="SU3SuYScUBmW4pT_DL9_-57" value="" style="html=1;shadow=0;dashed=0;align=center;verticalAlign=middle;shape=mxgraph.arrows2.arrow;dy=0.6;dx=40;flipH=1;notch=0;" vertex="1" parent="1">
          <mxGeometry x="600" y="80" width="100" height="70" as="geometry" />
        </mxCell>
        <mxCell id="SU3SuYScUBmW4pT_DL9_-58" value="" style="sketch=0;pointerEvents=1;shadow=0;dashed=0;html=1;strokeColor=none;fillColor=#505050;labelPosition=center;verticalLabelPosition=bottom;verticalAlign=top;outlineConnect=0;align=center;shape=mxgraph.office.concepts.home;" vertex="1" parent="1">
          <mxGeometry x="83.5" y="248.5" width="70" height="60" as="geometry" />
        </mxCell>
        <mxCell id="SU3SuYScUBmW4pT_DL9_-59" value="" style="shape=image;html=1;verticalAlign=top;verticalLabelPosition=bottom;labelBackgroundColor=#ffffff;imageAspect=0;aspect=fixed;image=https://cdn4.iconfinder.com/data/icons/essential-app-2/16/notification-bell-ring-alarm-128.png;fontColor=#454545;" vertex="1" parent="1">
          <mxGeometry x="80" y="405" width="70" height="70" as="geometry" />
        </mxCell>
        <mxCell id="SU3SuYScUBmW4pT_DL9_-60" value="" style="shape=image;html=1;verticalAlign=top;verticalLabelPosition=bottom;labelBackgroundColor=#ffffff;imageAspect=0;aspect=fixed;image=https://cdn4.iconfinder.com/data/icons/web-and-mobile-in-square/100/WebInSquare_for_publish-08-128.png" vertex="1" parent="1">
          <mxGeometry x="87" y="565" width="70" height="70" as="geometry" />
        </mxCell>
        <mxCell id="SU3SuYScUBmW4pT_DL9_-61" value="" style="sketch=0;outlineConnect=0;fontColor=#232F3E;gradientColor=none;fillColor=#232F3D;strokeColor=none;dashed=0;verticalLabelPosition=bottom;verticalAlign=top;align=center;html=1;fontSize=12;fontStyle=0;aspect=fixed;pointerEvents=1;shape=mxgraph.aws4.users;" vertex="1" parent="1">
          <mxGeometry x="83.5" y="727" width="78" height="78" as="geometry" />
        </mxCell>
        <mxCell id="SU3SuYScUBmW4pT_DL9_-62" value="" style="shadow=0;dashed=0;html=1;strokeColor=none;fillColor=#4495D1;labelPosition=center;verticalLabelPosition=bottom;verticalAlign=top;align=center;outlineConnect=0;shape=mxgraph.veeam.globe;" vertex="1" parent="1">
          <mxGeometry x="91" y="880" width="63" height="60" as="geometry" />
        </mxCell>
        <mxCell id="SU3SuYScUBmW4pT_DL9_-63" value="" style="shape=image;html=1;verticalAlign=top;verticalLabelPosition=bottom;labelBackgroundColor=#ffffff;imageAspect=0;aspect=fixed;image=https://cdn4.iconfinder.com/data/icons/ionicons/512/icon-at-128.png" vertex="1" parent="1">
          <mxGeometry x="78" y="1045" width="79" height="79" as="geometry" />
        </mxCell>
        <mxCell id="SU3SuYScUBmW4pT_DL9_-64" value="" style="html=1;dashed=0;aspect=fixed;verticalLabelPosition=bottom;verticalAlign=top;align=center;shape=mxgraph.gmdl.star;strokeColor=none;fillColor=#737373;shadow=0;sketch=0;" vertex="1" parent="1">
          <mxGeometry x="83.5" y="1195" width="70" height="70" as="geometry" />
        </mxCell>
        <mxCell id="SU3SuYScUBmW4pT_DL9_-65" value="" style="html=1;shadow=0;dashed=0;align=center;verticalAlign=middle;shape=mxgraph.arrows2.arrow;dy=0;dx=0;notch=28;rotation=-90;" vertex="1" parent="1">
          <mxGeometry x="81.81" y="1369.4099999999999" width="75.19" height="55.59" as="geometry" />
        </mxCell>
        <mxCell id="SU3SuYScUBmW4pT_DL9_-66" value="publish" style="rounded=1;whiteSpace=wrap;html=1;arcSize=50;strokeColor=none;strokeWidth=1;fillColor=#1CA5B8;fontColor=#ffffff;whiteSpace=wrap;align=center;verticalAlign=middle;spacingLeft=0;fontStyle=1;fontSize=44;spacing=10;" vertex="1" parent="1">
          <mxGeometry x="1970" y="1534" width="321" height="86" as="geometry" />
        </mxCell>
        <mxCell id="SU3SuYScUBmW4pT_DL9_-68" value="Home" style="text;html=1;strokeColor=none;fillColor=none;align=center;verticalAlign=middle;whiteSpace=wrap;rounded=0;fontSize=42;" vertex="1" parent="1">
          <mxGeometry x="180" y="270" width="220" height="30" as="geometry" />
        </mxCell>
        <mxCell id="SU3SuYScUBmW4pT_DL9_-69" value="Notifications" style="text;html=1;strokeColor=none;fillColor=none;align=center;verticalAlign=middle;whiteSpace=wrap;rounded=0;fontSize=42;" vertex="1" parent="1">
          <mxGeometry x="240" y="435" width="220" height="30" as="geometry" />
        </mxCell>
        <mxCell id="SU3SuYScUBmW4pT_DL9_-70" value="Explore" style="text;html=1;strokeColor=none;fillColor=none;align=center;verticalAlign=middle;whiteSpace=wrap;rounded=0;fontSize=42;" vertex="1" parent="1">
          <mxGeometry x="200" y="595" width="220" height="30" as="geometry" />
        </mxCell>
        <mxCell id="SU3SuYScUBmW4pT_DL9_-71" value="Local" style="text;html=1;strokeColor=none;fillColor=none;align=center;verticalAlign=middle;whiteSpace=wrap;rounded=0;fontSize=42;" vertex="1" parent="1">
          <mxGeometry x="180" y="751" width="220" height="30" as="geometry" />
        </mxCell>
        <mxCell id="SU3SuYScUBmW4pT_DL9_-72" value="Federated&lt;br&gt;" style="text;html=1;strokeColor=none;fillColor=none;align=center;verticalAlign=middle;whiteSpace=wrap;rounded=0;fontSize=42;" vertex="1" parent="1">
          <mxGeometry x="220" y="905" width="220" height="30" as="geometry" />
        </mxCell>
        <mxCell id="SU3SuYScUBmW4pT_DL9_-73" value="Messages" style="text;html=1;strokeColor=none;fillColor=none;align=center;verticalAlign=middle;whiteSpace=wrap;rounded=0;fontSize=42;" vertex="1" parent="1">
          <mxGeometry x="170" y="1065" width="340" height="30" as="geometry" />
        </mxCell>
        <mxCell id="SU3SuYScUBmW4pT_DL9_-75" value="Favorites" style="text;html=1;strokeColor=none;fillColor=none;align=center;verticalAlign=middle;whiteSpace=wrap;rounded=0;fontSize=42;" vertex="1" parent="1">
          <mxGeometry x="210" y="1225" width="220" height="30" as="geometry" />
        </mxCell>
        <mxCell id="SU3SuYScUBmW4pT_DL9_-76" value="Markers" style="text;html=1;strokeColor=none;fillColor=none;align=center;verticalAlign=middle;whiteSpace=wrap;rounded=0;fontSize=42;" vertex="1" parent="1">
          <mxGeometry x="200" y="1382.2" width="220" height="30" as="geometry" />
        </mxCell>
        <mxCell id="SU3SuYScUBmW4pT_DL9_-77" value="" style="shape=image;html=1;verticalAlign=top;verticalLabelPosition=bottom;labelBackgroundColor=#ffffff;imageAspect=0;aspect=fixed;image=https://cdn2.iconfinder.com/data/icons/shopping-elements-6/64/28-Orders_and_Check_Lists-128.png" vertex="1" parent="1">
          <mxGeometry x="63.5" y="1500" width="108" height="108" as="geometry" />
        </mxCell>
        <mxCell id="SU3SuYScUBmW4pT_DL9_-78" value="Lists" style="text;html=1;strokeColor=none;fillColor=none;align=center;verticalAlign=middle;whiteSpace=wrap;rounded=0;fontSize=42;" vertex="1" parent="1">
          <mxGeometry x="180" y="1539" width="220" height="30" as="geometry" />
        </mxCell>
        <mxCell id="SU3SuYScUBmW4pT_DL9_-79" value="" style="sketch=0;pointerEvents=1;shadow=0;dashed=0;html=1;strokeColor=none;fillColor=#505050;labelPosition=center;verticalLabelPosition=bottom;verticalAlign=top;outlineConnect=0;align=center;shape=mxgraph.office.concepts.settings_office_365;" vertex="1" parent="1">
          <mxGeometry x="86.5" y="90" width="72" height="69" as="geometry" />
        </mxCell>
        <mxCell id="SU3SuYScUBmW4pT_DL9_-80" value="Settings" style="text;html=1;strokeColor=none;fillColor=none;align=center;verticalAlign=middle;whiteSpace=wrap;rounded=0;fontSize=42;" vertex="1" parent="1">
          <mxGeometry x="180" y="109.5" width="220" height="30" as="geometry" />
        </mxCell>
        <mxCell id="SU3SuYScUBmW4pT_DL9_-82" value="Following" style="rounded=1;whiteSpace=wrap;html=1;arcSize=50;strokeColor=#0055ff;strokeWidth=5;fillColor=none;fontColor=#000000;whiteSpace=wrap;align=center;verticalAlign=middle;spacingLeft=0;fontStyle=1;fontSize=44;spacing=10;" vertex="1" parent="1">
          <mxGeometry x="1354.5" y="520" width="321" height="86" as="geometry" />
        </mxCell>
        <mxCell id="SU3SuYScUBmW4pT_DL9_-83" value="Following" style="rounded=1;whiteSpace=wrap;html=1;arcSize=50;strokeColor=#0055ff;strokeWidth=5;fillColor=none;fontColor=#000000;whiteSpace=wrap;align=center;verticalAlign=middle;spacingLeft=0;fontStyle=1;fontSize=44;spacing=10;" vertex="1" parent="1">
          <mxGeometry x="1354.5" y="757" width="321" height="86" as="geometry" />
        </mxCell>
        <mxCell id="SU3SuYScUBmW4pT_DL9_-84" value="Follow" style="rounded=1;whiteSpace=wrap;html=1;arcSize=50;strokeColor=#0055ff;strokeWidth=5;fillColor=none;fontColor=#000000;whiteSpace=wrap;align=center;verticalAlign=middle;spacingLeft=0;fontStyle=1;fontSize=44;spacing=10;" vertex="1" parent="1">
          <mxGeometry x="1360" y="997" width="321" height="86" as="geometry" />
        </mxCell>
        <mxCell id="SU3SuYScUBmW4pT_DL9_-85" value="Follow" style="rounded=1;whiteSpace=wrap;html=1;arcSize=50;strokeColor=#0055ff;strokeWidth=5;fillColor=none;fontColor=#000000;whiteSpace=wrap;align=center;verticalAlign=middle;spacingLeft=0;fontStyle=1;fontSize=44;spacing=10;" vertex="1" parent="1">
          <mxGeometry x="1360" y="1237" width="321" height="86" as="geometry" />
        </mxCell>
        <mxCell id="SU3SuYScUBmW4pT_DL9_-86" value="Following" style="rounded=1;whiteSpace=wrap;html=1;arcSize=50;strokeColor=#0055ff;strokeWidth=5;fillColor=none;fontColor=#000000;whiteSpace=wrap;align=center;verticalAlign=middle;spacingLeft=0;fontStyle=1;fontSize=44;spacing=10;" vertex="1" parent="1">
          <mxGeometry x="1360" y="1472.5" width="321" height="86" as="geometry" />
        </mxCell>
      </root>
    </mxGraphModel>
  </diagram>
</mxfile>
